<?xml version="1.0" encoding="UTF-8" standalone="no"?>
<svg
   height="16"
   viewBox="0 0 16 16"
   width="16"
   version="1.1"
   id="svg1"
   sodipodi:docname="BoxAspectContainer.svg"
   inkscape:version="1.3.2 (091e20e, 2023-11-25, custom)"
   xmlns:inkscape="http://www.inkscape.org/namespaces/inkscape"
   xmlns:sodipodi="http://sodipodi.sourceforge.net/DTD/sodipodi-0.dtd"
   xmlns="http://www.w3.org/2000/svg"
   xmlns:svg="http://www.w3.org/2000/svg">
  <defs
     id="defs1" />
  <sodipodi:namedview
     id="namedview1"
     pagecolor="#ffffff"
     bordercolor="#000000"
     borderopacity="0.25"
     inkscape:showpageshadow="2"
     inkscape:pageopacity="0.0"
     inkscape:pagecheckerboard="0"
     inkscape:deskcolor="#d1d1d1"
     inkscape:zoom="22.627417"
     inkscape:cx="-15.003922"
     inkscape:cy="18.406873"
     inkscape:window-width="2498"
     inkscape:window-height="1417"
     inkscape:window-x="-8"
     inkscape:window-y="-8"
     inkscape:window-maximized="1"
     inkscape:current-layer="svg1" />
  <path
     d="M3 1a2 2 0 0 0-2 2v10a2 2 0 0 0 2 2h10a2 2 0 0 0 2-2V3a2 2 0 0 0-2-2zm0 2h10v2H3zm0 4h10v2H3zm0 4h10v2H3z"
     fill="#8eef97"
     transform="rotate(45 4.241 9.083) scale(.737)"
     id="path1" />
  <path
     d="m 3.6531437,1.3104089 c -1.4771187,0 -2.67456007,0.8555896 -2.67456015,1.9110129 H 3.6531437 Z m 2.6745602,0 V 3.2214218 H 9.0022641 V 1.3104089 Z m 5.3491211,0 v 1.9110129 h 2.674559 c 0,-1.055423 -1.197441,-1.9110124 -2.674559,-1.9110129 z M 0.97858355,5.1324349 v 1.911013 H 2.9902311 l 0.6629126,-1.911013 z m 10.69824145,0 0.861786,1.911013 h 1.812773 V 5.1324349 Z M 0.97858355,8.954461 v 1.911013 H 3.6531437 L 3.1228136,8.954461 Z M 12.560708,8.9323639 11.676825,10.865474 h 2.674559 V 8.954461 Z M 0.97858355,12.776487 c 0,1.055423 1.19744135,1.911013 2.67456015,1.911013 v -1.911013 z m 5.34912035,0 V 14.6875 h 2.6745602 v -1.911013 z m 5.3491211,0 V 14.6875 c 1.477118,0 2.674559,-0.85559 2.674559,-1.911013 z"
     fill="#8eef97"
     id="path1-1"
     style="stroke-width:1.13;stroke-dasharray:none"
     sodipodi:nodetypes="cccccccccccccccccccccccccccccccccccccccccccccc" />
</svg>
